<svg width="500" height="500" viewBox="0 0 500 500" fill="none" xmlns="http://www.w3.org/2000/svg">
<g clip-path="url(#clip0_1068_2521)">
<path d="M500 0H0V500H500V0Z" fill="url(#paint0_linear_1068_2521)"/>
<mask id="mask0_1068_2521" style="mask-type:luminance" maskUnits="userSpaceOnUse" x="180" y="58" width="139" height="99">
<path d="M318.849 58H180V157H318.849V58Z" fill="white"/>
</mask>
<g mask="url(#mask0_1068_2521)">
<path d="M252.227 63.2145V75.3481C252.227 77.5802 253.6 79.5261 255.66 80.2702L278.897 88.5691C283.476 90.1716 283.476 96.7535 278.897 98.4133L255.66 106.712C253.6 107.456 252.227 109.402 252.227 111.634V123.596C252.227 127.316 255.947 129.835 259.323 128.461L315.527 105.11C317.416 104.308 318.675 102.362 318.675 100.245V86.5087C318.675 84.391 317.416 82.5023 315.527 81.701L259.323 58.4069C255.947 56.9761 252.227 59.4944 252.227 63.2145Z" fill="#CCDB28"/>
<path d="M246.388 151.617V139.599C246.388 137.367 245.014 135.364 242.954 134.62L219.833 126.378C215.254 124.719 215.254 118.08 219.833 116.477L242.954 108.179C245.014 107.492 246.388 105.489 246.388 103.257V91.3532C246.388 87.6332 242.725 85.0578 239.291 86.4886L183.205 109.782C181.259 110.64 180 112.529 180 114.646V128.382C180 130.499 181.259 132.445 183.205 133.246L239.291 156.482C242.725 157.913 246.388 155.337 246.388 151.617Z" fill="#CCDB28"/>
</g>
<mask id="mask1_1068_2521" style="mask-type:luminance" maskUnits="userSpaceOnUse" x="47" y="184" width="26" height="33">
<path d="M72.5484 184H47V217H72.5484V184Z" fill="white"/>
</mask>
<g mask="url(#mask1_1068_2521)">
<path d="M48.7461 207.868L56.6468 209.449L57.8319 207.078M66.1277 214.189V207.868L59.807 203.128L61.3872 193.647M61.3872 193.647L53.4865 195.227V199.968M61.3872 193.647L66.1277 198.388L70.8681 199.968M48.7461 208.933L56.6468 210.513L57.8319 208.143M66.1277 215.254V208.933L59.807 204.193L61.3872 194.712M61.3872 194.712L53.4865 196.292V201.032M61.3872 194.712L66.1277 199.452L70.8681 201.032M61.3872 187.327C61.3872 187.746 61.5537 188.148 61.8501 188.444C62.1464 188.74 62.5483 188.907 62.9674 188.907C63.3865 188.907 63.7883 188.74 64.0847 188.444C64.381 188.148 64.5475 187.746 64.5475 187.327C64.5475 186.908 64.381 186.506 64.0847 186.209C63.7883 185.913 63.3865 185.746 62.9674 185.746C62.5483 185.746 62.1464 185.913 61.8501 186.209C61.5537 186.506 61.3872 186.908 61.3872 187.327ZM61.3872 188.391C61.3872 188.81 61.5537 189.212 61.8501 189.508C62.1464 189.805 62.5483 189.971 62.9674 189.971C63.3865 189.971 63.7883 189.805 64.0847 189.508C64.381 189.212 64.5475 188.81 64.5475 188.391C64.5475 187.972 64.381 187.57 64.0847 187.274C63.7883 186.977 63.3865 186.811 62.9674 186.811C62.5483 186.811 62.1464 186.977 61.8501 187.274C61.5537 187.57 61.3872 187.972 61.3872 188.391Z" stroke="#CAD831" stroke-opacity="0.8" stroke-width="3" stroke-linecap="round" stroke-linejoin="round"/>
</g>
<mask id="mask2_1068_2521" style="mask-type:luminance" maskUnits="userSpaceOnUse" x="47" y="113" width="26" height="33">
<path d="M72.5484 113H47V146H72.5484V113Z" fill="white"/>
</mask>
<g mask="url(#mask2_1068_2521)">
<path d="M48.7461 136.868L56.6468 138.449L57.8319 136.078M66.1277 143.189V136.868L59.807 132.128L61.3872 122.647M61.3872 122.647L53.4865 124.227V128.968M61.3872 122.647L66.1277 127.388L70.8681 128.968M48.7461 137.933L56.6468 139.513L57.8319 137.143M66.1277 144.254V137.933L59.807 133.193L61.3872 123.712M61.3872 123.712L53.4865 125.292V130.032M61.3872 123.712L66.1277 128.452L70.8681 130.032M61.3872 116.327C61.3872 116.746 61.5537 117.148 61.8501 117.444C62.1464 117.74 62.5483 117.907 62.9674 117.907C63.3865 117.907 63.7883 117.74 64.0847 117.444C64.381 117.148 64.5475 116.746 64.5475 116.327C64.5475 115.908 64.381 115.506 64.0847 115.209C63.7883 114.913 63.3865 114.746 62.9674 114.746C62.5483 114.746 62.1464 114.913 61.8501 115.209C61.5537 115.506 61.3872 115.908 61.3872 116.327ZM61.3872 117.391C61.3872 117.81 61.5537 118.212 61.8501 118.508C62.1464 118.805 62.5483 118.971 62.9674 118.971C63.3865 118.971 63.7883 118.805 64.0847 118.508C64.381 118.212 64.5475 117.81 64.5475 117.391C64.5475 116.972 64.381 116.57 64.0847 116.274C63.7883 115.977 63.3865 115.811 62.9674 115.811C62.5483 115.811 62.1464 115.977 61.8501 116.274C61.5537 116.57 61.3872 116.972 61.3872 117.391Z" stroke="#CAD831" stroke-opacity="0.4" stroke-width="3" stroke-linecap="round" stroke-linejoin="round"/>
</g>
<mask id="mask3_1068_2521" style="mask-type:luminance" maskUnits="userSpaceOnUse" x="414" y="184" width="26" height="33">
<path d="M439.548 184H414V217H439.548V184Z" fill="white"/>
</mask>
<g mask="url(#mask3_1068_2521)">
<path d="M415.746 207.868L423.647 209.449L424.832 207.078M433.128 214.189V207.868L426.807 203.128L428.387 193.647M428.387 193.647L420.487 195.227V199.968M428.387 193.647L433.128 198.388L437.868 199.968M415.746 208.933L423.647 210.513L424.832 208.143M433.128 215.254V208.933L426.807 204.193L428.387 194.712M428.387 194.712L420.487 196.292V201.032M428.387 194.712L433.128 199.452L437.868 201.032M428.387 187.327C428.387 187.746 428.554 188.148 428.85 188.444C429.146 188.74 429.548 188.907 429.967 188.907C430.386 188.907 430.788 188.74 431.085 188.444C431.381 188.148 431.548 187.746 431.548 187.327C431.548 186.908 431.381 186.506 431.085 186.209C430.788 185.913 430.386 185.746 429.967 185.746C429.548 185.746 429.146 185.913 428.85 186.209C428.554 186.506 428.387 186.908 428.387 187.327ZM428.387 188.391C428.387 188.81 428.554 189.212 428.85 189.508C429.146 189.805 429.548 189.971 429.967 189.971C430.386 189.971 430.788 189.805 431.085 189.508C431.381 189.212 431.548 188.81 431.548 188.391C431.548 187.972 431.381 187.57 431.085 187.274C430.788 186.977 430.386 186.811 429.967 186.811C429.548 186.811 429.146 186.977 428.85 187.274C428.554 187.57 428.387 187.972 428.387 188.391Z" stroke="#CAD831" stroke-opacity="0.8" stroke-width="3" stroke-linecap="round" stroke-linejoin="round"/>
</g>
<mask id="mask4_1068_2521" style="mask-type:luminance" maskUnits="userSpaceOnUse" x="414" y="116" width="26" height="33">
<path d="M439.548 116H414V149H439.548V116Z" fill="white"/>
</mask>
<g mask="url(#mask4_1068_2521)">
<path d="M415.746 139.868L423.647 141.449L424.832 139.078M433.128 146.189V139.868L426.807 135.128L428.387 125.647M428.387 125.647L420.487 127.227V131.968M428.387 125.647L433.128 130.388L437.868 131.968M415.746 140.933L423.647 142.513L424.832 140.143M433.128 147.254V140.933L426.807 136.193L428.387 126.712M428.387 126.712L420.487 128.292V133.032M428.387 126.712L433.128 131.452L437.868 133.032M428.387 119.327C428.387 119.746 428.554 120.148 428.85 120.444C429.146 120.74 429.548 120.907 429.967 120.907C430.386 120.907 430.788 120.74 431.085 120.444C431.381 120.148 431.548 119.746 431.548 119.327C431.548 118.908 431.381 118.506 431.085 118.209C430.788 117.913 430.386 117.746 429.967 117.746C429.548 117.746 429.146 117.913 428.85 118.209C428.554 118.506 428.387 118.908 428.387 119.327ZM428.387 120.391C428.387 120.81 428.554 121.212 428.85 121.508C429.146 121.805 429.548 121.971 429.967 121.971C430.386 121.971 430.788 121.805 431.085 121.508C431.381 121.212 431.548 120.81 431.548 120.391C431.548 119.972 431.381 119.57 431.085 119.274C430.788 118.977 430.386 118.811 429.967 118.811C429.548 118.811 429.146 118.977 428.85 119.274C428.554 119.57 428.387 119.972 428.387 120.391Z" stroke="#CAD831" stroke-opacity="0.4" stroke-width="3" stroke-linecap="round" stroke-linejoin="round"/>
</g>
<mask id="mask5_1068_2521" style="mask-type:luminance" maskUnits="userSpaceOnUse" x="47" y="50" width="26" height="33">
<path d="M72.5484 50H47V83H72.5484V50Z" fill="white"/>
</mask>
<g mask="url(#mask5_1068_2521)">
<path d="M48.7461 73.8685L56.6468 75.4485L57.8319 73.0784M66.1277 80.189V73.8685L59.807 69.1281L61.3872 59.6472M61.3872 59.6472L53.4865 61.2273V65.9677M61.3872 59.6472L66.1277 64.3876L70.8681 65.9677M48.7461 74.933L56.6468 76.5131L57.8319 74.1429M66.1277 81.2536V74.933L59.807 70.1926L61.3872 60.7117M61.3872 60.7117L53.4865 62.2919V67.0323M61.3872 60.7117L66.1277 65.4521L70.8681 67.0323M61.3872 53.3266C61.3872 53.7457 61.5537 54.1476 61.8501 54.444C62.1464 54.7403 62.5483 54.9068 62.9674 54.9068C63.3865 54.9068 63.7883 54.7403 64.0847 54.444C64.381 54.1476 64.5475 53.7457 64.5475 53.3266C64.5475 52.9075 64.381 52.5056 64.0847 52.2093C63.7883 51.913 63.3865 51.7465 62.9674 51.7465C62.5483 51.7465 62.1464 51.913 61.8501 52.2093C61.5537 52.5056 61.3872 52.9075 61.3872 53.3266ZM61.3872 54.3911C61.3872 54.8102 61.5537 55.2121 61.8501 55.5085C62.1464 55.8048 62.5483 55.9713 62.9674 55.9713C63.3865 55.9713 63.7883 55.8048 64.0847 55.5085C64.381 55.2121 64.5475 54.8102 64.5475 54.3911C64.5475 53.9721 64.381 53.5701 64.0847 53.2738C63.7883 52.9775 63.3865 52.811 62.9674 52.811C62.5483 52.811 62.1464 52.9775 61.8501 53.2738C61.5537 53.5701 61.3872 53.9721 61.3872 54.3911Z" stroke="#CAD831" stroke-opacity="0.1" stroke-width="3" stroke-linecap="round" stroke-linejoin="round"/>
</g>
<mask id="mask6_1068_2521" style="mask-type:luminance" maskUnits="userSpaceOnUse" x="414" y="50" width="26" height="33">
<path d="M439.548 50H414V83H439.548V50Z" fill="white"/>
</mask>
<g mask="url(#mask6_1068_2521)">
<path d="M415.746 73.8685L423.647 75.4485L424.832 73.0784M433.128 80.189V73.8685L426.807 69.1281L428.387 59.6472M428.387 59.6472L420.487 61.2273V65.9677M428.387 59.6472L433.128 64.3876L437.868 65.9677M415.746 74.933L423.647 76.5131L424.832 74.1429M433.128 81.2536V74.933L426.807 70.1926L428.387 60.7117M428.387 60.7117L420.487 62.2919V67.0323M428.387 60.7117L433.128 65.4521L437.868 67.0323M428.387 53.3266C428.387 53.7457 428.554 54.1476 428.85 54.444C429.146 54.7403 429.548 54.9068 429.967 54.9068C430.386 54.9068 430.788 54.7403 431.085 54.444C431.381 54.1476 431.548 53.7457 431.548 53.3266C431.548 52.9075 431.381 52.5056 431.085 52.2093C430.788 51.913 430.386 51.7465 429.967 51.7465C429.548 51.7465 429.146 51.913 428.85 52.2093C428.554 52.5056 428.387 52.9075 428.387 53.3266ZM428.387 54.3911C428.387 54.8102 428.554 55.2121 428.85 55.5085C429.146 55.8048 429.548 55.9713 429.967 55.9713C430.386 55.9713 430.788 55.8048 431.085 55.5085C431.381 55.2121 431.548 54.8102 431.548 54.3911C431.548 53.9721 431.381 53.5701 431.085 53.2738C430.788 52.9775 430.386 52.811 429.967 52.811C429.548 52.811 429.146 52.9775 428.85 53.2738C428.554 53.5701 428.387 53.9721 428.387 54.3911Z" stroke="#CAD831" stroke-opacity="0.1" stroke-width="3" stroke-linecap="round" stroke-linejoin="round"/>
</g>
</g>
<defs>
<linearGradient id="paint0_linear_1068_2521" x1="250" y1="0" x2="250" y2="500" gradientUnits="userSpaceOnUse">
<stop offset="0.749064" stop-color="#141F29"/>
<stop offset="1" stop-color="#B8C624"/>
</linearGradient>
<clipPath id="clip0_1068_2521">
<rect width="500" height="500" fill="white"/>
</clipPath>
</defs>
</svg>
