<svg width="400" height="210" viewBox="0 0 400 210" fill="none" xmlns="http://www.w3.org/2000/svg">
<path d="M392 5H8C3.58172 5 0 8.58172 0 13V197C0 201.418 3.58172 205 8 205H392C396.418 205 400 201.418 400 197V13C400 8.58172 396.418 5 392 5Z" fill="#CCDB28"/>
<path d="M336 40.0061V20.0061" stroke="#141F29" stroke-width="3"/>
<path d="M336 70.0061V50.0061" stroke="#141F29" stroke-width="3"/>
<path d="M336 100.006V80.0061" stroke="#141F29" stroke-width="3"/>
<path d="M336 130.006V110.006" stroke="#141F29" stroke-width="3"/>
<path d="M336 160.006V140.006" stroke="#141F29" stroke-width="3"/>
<path d="M336 190.006V170.006" stroke="#141F29" stroke-width="3"/>
<path d="M341 5C341 6.32608 340.473 7.59785 339.536 8.53553C338.598 9.47322 337.326 10 336 10C334.674 10 333.402 9.47322 332.464 8.53553C331.527 7.59785 331 6.32608 331 5H336H341Z" fill="#141F29"/>
<path d="M341 205C341 203.674 340.473 202.402 339.536 201.464C338.598 200.527 337.326 200 336 200C334.674 200 333.402 200.527 332.464 201.464C331.527 202.402 331 203.674 331 205H336H341Z" fill="#141F29"/>
</svg>
