<svg width="46" height="24" viewBox="0 0 46 24" fill="none" xmlns="http://www.w3.org/2000/svg">
<path d="M0 1.69781V5.63295C0 6.3707 0.43731 6.98539 1.1807 7.23143L9.22639 9.93673C10.8004 10.4693 10.8004 12.6008 9.22639 13.1338L1.1807 15.8391C0.43731 16.0851 0 16.6998 0 17.4376V21.3315C0 22.5204 1.26831 23.3399 2.44864 22.8891L21.9069 15.3061C22.5627 15.0604 23 14.4045 23 13.7485V9.28076C23 8.58391 22.5627 7.96921 21.9069 7.68229L2.44864 0.14019C1.26831 -0.310637 0 0.509236 0 1.69781Z" fill="#CCDB28"/>
<path d="M23 1.69781V5.63295C23 6.3707 23.4373 6.98539 24.1807 7.23143L32.2264 9.93673C33.8004 10.4693 33.8004 12.6008 32.2264 13.1338L24.1807 15.8391C23.4373 16.0851 23 16.6998 23 17.4376V21.3315C23 22.5204 24.2683 23.3399 25.4486 22.8891L44.9069 15.3061C45.5627 15.0604 46 14.4045 46 13.7485V9.28076C46 8.58391 45.5627 7.96921 44.9069 7.68229L25.4486 0.14019C24.2683 -0.310637 23 0.509236 23 1.69781Z" fill="#CCDB28"/>
</svg>
