<svg width="374" height="97" viewBox="0 0 374 97" fill="none" xmlns="http://www.w3.org/2000/svg">
<path d="M46.5704 51.0525V59.7122H49.487V51.0525C55.242 51.7702 59.6954 56.6795 59.6954 62.6289H36.362C36.362 56.6795 40.8153 51.7702 46.5704 51.0525ZM48.0287 49.5039C43.1943 49.5039 39.2787 45.5883 39.2787 40.7539C39.2787 35.9195 43.1943 32.0039 48.0287 32.0039C52.8631 32.0039 56.7787 35.9195 56.7787 40.7539C56.7787 45.5883 52.8631 49.5039 48.0287 49.5039Z" fill="#141F29"/>
<path d="M82.0044 41.5649V47.9849H90.1344V51.2099H82.0044V60.0449H77.9544V38.3549H91.6344V41.5649H82.0044ZM101.502 48.6749C102.262 48.6749 102.922 48.5799 103.482 48.3899C104.052 48.1999 104.517 47.9399 104.877 47.6099C105.247 47.2699 105.522 46.8699 105.702 46.4099C105.882 45.9499 105.972 45.4449 105.972 44.8949C105.972 43.7949 105.607 42.9499 104.877 42.3599C104.157 41.7699 103.052 41.4749 101.562 41.4749H98.9816V48.6749H101.502ZM111.882 60.0449H108.237C107.547 60.0449 107.047 59.7749 106.737 59.2349L102.177 52.2899C102.007 52.0299 101.817 51.8449 101.607 51.7349C101.407 51.6249 101.107 51.5699 100.707 51.5699H98.9816V60.0449H94.9466V38.3549H101.562C103.032 38.3549 104.292 38.5099 105.342 38.8199C106.402 39.1199 107.267 39.5449 107.937 40.0949C108.617 40.6449 109.117 41.3049 109.437 42.0749C109.757 42.8349 109.917 43.6749 109.917 44.5949C109.917 45.3249 109.807 46.0149 109.587 46.6649C109.377 47.3149 109.067 47.9049 108.657 48.4349C108.257 48.9649 107.757 49.4299 107.157 49.8299C106.567 50.2299 105.892 50.5449 105.132 50.7749C105.392 50.9249 105.632 51.1049 105.852 51.3149C106.072 51.5149 106.272 51.7549 106.452 52.0349L111.882 60.0449ZM118.274 41.5649V47.5799H125.864V50.6849H118.274V56.8199H127.904V60.0449H114.224V38.3549H127.904V41.5649H118.274ZM135.53 41.5649V47.5799H143.12V50.6849H135.53V56.8199H145.16V60.0449H131.48V38.3549H145.16V41.5649H135.53ZM156.526 60.0449V47.4449L155.191 47.2349C154.901 47.1749 154.666 47.0749 154.486 46.9349C154.316 46.7849 154.231 46.5749 154.231 46.3049V44.7899H156.526V43.6499C156.526 42.7699 156.656 41.9799 156.916 41.2799C157.186 40.5799 157.566 39.9849 158.056 39.4949C158.556 39.0049 159.161 38.6299 159.871 38.3699C160.581 38.1099 161.381 37.9799 162.271 37.9799C162.981 37.9799 163.641 38.0749 164.251 38.2649L164.176 40.1249C164.166 40.2649 164.126 40.3799 164.056 40.4699C163.986 40.5499 163.891 40.6149 163.771 40.6649C163.661 40.7049 163.531 40.7349 163.381 40.7549C163.231 40.7649 163.071 40.7699 162.901 40.7699C162.461 40.7699 162.066 40.8199 161.716 40.9199C161.376 41.0099 161.086 41.1749 160.846 41.4149C160.606 41.6449 160.421 41.9549 160.291 42.3449C160.171 42.7249 160.111 43.1999 160.111 43.7699V44.7899H164.116V47.4299H160.231V60.0449H156.526ZM172.597 44.4149C173.737 44.4149 174.772 44.5999 175.702 44.9699C176.642 45.3399 177.442 45.8649 178.102 46.5449C178.772 47.2249 179.287 48.0549 179.647 49.0349C180.007 50.0149 180.187 51.1099 180.187 52.3199C180.187 53.5399 180.007 54.6399 179.647 55.6199C179.287 56.5999 178.772 57.4349 178.102 58.1249C177.442 58.8149 176.642 59.3449 175.702 59.7149C174.772 60.0849 173.737 60.2699 172.597 60.2699C171.447 60.2699 170.402 60.0849 169.462 59.7149C168.522 59.3449 167.717 58.8149 167.047 58.1249C166.387 57.4349 165.872 56.5999 165.502 55.6199C165.142 54.6399 164.962 53.5399 164.962 52.3199C164.962 51.1099 165.142 50.0149 165.502 49.0349C165.872 48.0549 166.387 47.2249 167.047 46.5449C167.717 45.8649 168.522 45.3399 169.462 44.9699C170.402 44.5999 171.447 44.4149 172.597 44.4149ZM172.597 57.4199C173.877 57.4199 174.822 56.9899 175.432 56.1299C176.052 55.2699 176.362 54.0099 176.362 52.3499C176.362 50.6899 176.052 49.4249 175.432 48.5549C174.822 47.6849 173.877 47.2499 172.597 47.2499C171.297 47.2499 170.332 47.6899 169.702 48.5699C169.082 49.4399 168.772 50.6999 168.772 52.3499C168.772 53.9999 169.082 55.2599 169.702 56.1299C170.332 56.9899 171.297 57.4199 172.597 57.4199ZM186.509 47.3249C186.989 46.4049 187.559 45.6849 188.219 45.1649C188.879 44.6349 189.659 44.3699 190.559 44.3699C191.269 44.3699 191.839 44.5249 192.269 44.8349L192.029 47.6099C191.979 47.7899 191.904 47.9199 191.804 47.9999C191.714 48.0699 191.589 48.1049 191.429 48.1049C191.279 48.1049 191.054 48.0799 190.754 48.0299C190.464 47.9799 190.179 47.9549 189.899 47.9549C189.489 47.9549 189.124 48.0149 188.804 48.1349C188.484 48.2549 188.194 48.4299 187.934 48.6599C187.684 48.8799 187.459 49.1499 187.259 49.4699C187.069 49.7899 186.889 50.1549 186.719 50.5649V60.0449H183.014V44.6549H185.189C185.569 44.6549 185.834 44.7249 185.984 44.8649C186.134 44.9949 186.234 45.2349 186.284 45.5849L186.509 47.3249ZM222.126 49.1999C222.126 50.7899 221.861 52.2649 221.331 53.6249C220.811 54.9749 220.071 56.1449 219.111 57.1349C218.151 58.1249 216.996 58.8999 215.646 59.4599C214.296 60.0099 212.796 60.2849 211.146 60.2849C209.506 60.2849 208.011 60.0099 206.661 59.4599C205.311 58.8999 204.151 58.1249 203.181 57.1349C202.221 56.1449 201.476 54.9749 200.946 53.6249C200.416 52.2649 200.151 50.7899 200.151 49.1999C200.151 47.6099 200.416 46.1399 200.946 44.7899C201.476 43.4299 202.221 42.2549 203.181 41.2649C204.151 40.2749 205.311 39.5049 206.661 38.9549C208.011 38.3949 209.506 38.1149 211.146 38.1149C212.246 38.1149 213.281 38.2449 214.251 38.5049C215.221 38.7549 216.111 39.1149 216.921 39.5849C217.731 40.0449 218.456 40.6099 219.096 41.2799C219.746 41.9399 220.296 42.6799 220.746 43.4999C221.196 44.3199 221.536 45.2099 221.766 46.1699C222.006 47.1299 222.126 48.1399 222.126 49.1999ZM218.001 49.1999C218.001 48.0099 217.841 46.9449 217.521 46.0049C217.201 45.0549 216.746 44.2499 216.156 43.5899C215.566 42.9299 214.846 42.4249 213.996 42.0749C213.156 41.7249 212.206 41.5499 211.146 41.5499C210.086 41.5499 209.131 41.7249 208.281 42.0749C207.441 42.4249 206.721 42.9299 206.121 43.5899C205.531 44.2499 205.076 45.0549 204.756 46.0049C204.436 46.9449 204.276 48.0099 204.276 49.1999C204.276 50.3899 204.436 51.4599 204.756 52.4099C205.076 53.3499 205.531 54.1499 206.121 54.8099C206.721 55.4599 207.441 55.9599 208.281 56.3099C209.131 56.6599 210.086 56.8349 211.146 56.8349C212.206 56.8349 213.156 56.6599 213.996 56.3099C214.846 55.9599 215.566 55.4599 216.156 54.8099C216.746 54.1499 217.201 53.3499 217.521 52.4099C217.841 51.4599 218.001 50.3899 218.001 49.1999ZM228.316 47.3249C228.796 46.4049 229.366 45.6849 230.026 45.1649C230.686 44.6349 231.466 44.3699 232.366 44.3699C233.076 44.3699 233.646 44.5249 234.076 44.8349L233.836 47.6099C233.786 47.7899 233.711 47.9199 233.611 47.9999C233.521 48.0699 233.396 48.1049 233.236 48.1049C233.086 48.1049 232.861 48.0799 232.561 48.0299C232.271 47.9799 231.986 47.9549 231.706 47.9549C231.296 47.9549 230.931 48.0149 230.611 48.1349C230.291 48.2549 230.001 48.4299 229.741 48.6599C229.491 48.8799 229.266 49.1499 229.066 49.4699C228.876 49.7899 228.696 50.1549 228.526 50.5649V60.0449H224.821V44.6549H226.996C227.376 44.6549 227.641 44.7249 227.791 44.8649C227.941 44.9949 228.041 45.2349 228.091 45.5849L228.316 47.3249ZM241.461 51.9749C241.921 51.9749 242.321 51.9149 242.661 51.7949C243.001 51.6649 243.281 51.4899 243.501 51.2699C243.731 51.0499 243.901 50.7849 244.011 50.4749C244.131 50.1649 244.191 49.8249 244.191 49.4549C244.191 48.6949 243.961 48.0949 243.501 47.6549C243.051 47.2049 242.371 46.9799 241.461 46.9799C240.551 46.9799 239.866 47.2049 239.406 47.6549C238.956 48.0949 238.731 48.6949 238.731 49.4549C238.731 49.8149 238.786 50.1499 238.896 50.4599C239.016 50.7699 239.186 51.0399 239.406 51.2699C239.636 51.4899 239.921 51.6649 240.261 51.7949C240.611 51.9149 241.011 51.9749 241.461 51.9749ZM245.646 60.7349C245.646 60.4349 245.556 60.1899 245.376 59.9999C245.196 59.8099 244.951 59.6649 244.641 59.5649C244.331 59.4549 243.966 59.3749 243.546 59.3249C243.136 59.2749 242.696 59.2399 242.226 59.2199C241.766 59.1899 241.286 59.1649 240.786 59.1449C240.296 59.1249 239.816 59.0849 239.346 59.0249C238.936 59.2549 238.601 59.5249 238.341 59.8349C238.091 60.1449 237.966 60.5049 237.966 60.9149C237.966 61.1849 238.031 61.4349 238.161 61.6649C238.301 61.9049 238.516 62.1099 238.806 62.2799C239.106 62.4499 239.491 62.5799 239.961 62.6699C240.431 62.7699 241.006 62.8199 241.686 62.8199C242.376 62.8199 242.971 62.7649 243.471 62.6549C243.971 62.5549 244.381 62.4099 244.701 62.2199C245.031 62.0399 245.271 61.8199 245.421 61.5599C245.571 61.3099 245.646 61.0349 245.646 60.7349ZM249.336 45.1799V46.5599C249.336 46.9999 249.071 47.2699 248.541 47.3699L247.161 47.6249C247.371 48.1549 247.476 48.7349 247.476 49.3649C247.476 50.1249 247.321 50.8149 247.011 51.4349C246.711 52.0449 246.291 52.5649 245.751 52.9949C245.211 53.4249 244.571 53.7599 243.831 53.9999C243.101 54.2299 242.311 54.3449 241.461 54.3449C241.161 54.3449 240.871 54.3299 240.591 54.2999C240.311 54.2699 240.036 54.2299 239.766 54.1799C239.286 54.4699 239.046 54.7949 239.046 55.1549C239.046 55.4649 239.186 55.6949 239.466 55.8449C239.756 55.9849 240.136 56.0849 240.606 56.1449C241.076 56.2049 241.611 56.2449 242.211 56.2649C242.811 56.2749 243.426 56.3049 244.056 56.3549C244.686 56.4049 245.301 56.4949 245.901 56.6249C246.501 56.7449 247.036 56.9399 247.506 57.2099C247.976 57.4799 248.351 57.8499 248.631 58.3199C248.921 58.7799 249.066 59.3749 249.066 60.1049C249.066 60.7849 248.896 61.4449 248.556 62.0849C248.226 62.7249 247.741 63.2949 247.101 63.7949C246.471 64.2949 245.691 64.6949 244.761 64.9949C243.841 65.3049 242.791 65.4599 241.611 65.4599C240.451 65.4599 239.441 65.3449 238.581 65.1149C237.721 64.8949 237.006 64.5949 236.436 64.2149C235.866 63.8449 235.441 63.4149 235.161 62.9249C234.881 62.4349 234.741 61.9249 234.741 61.3949C234.741 60.6749 234.956 60.0749 235.386 59.5949C235.826 59.1049 236.426 58.7149 237.186 58.4249C236.776 58.2149 236.451 57.9349 236.211 57.5849C235.971 57.2349 235.851 56.7749 235.851 56.2049C235.851 55.9749 235.891 55.7399 235.971 55.4999C236.061 55.2499 236.186 55.0049 236.346 54.7649C236.516 54.5249 236.726 54.2999 236.976 54.0899C237.226 53.8699 237.521 53.6749 237.861 53.5049C237.081 53.0849 236.466 52.5249 236.016 51.8249C235.576 51.1249 235.356 50.3049 235.356 49.3649C235.356 48.6049 235.506 47.9199 235.806 47.3099C236.116 46.6899 236.541 46.1649 237.081 45.7349C237.631 45.2949 238.276 44.9599 239.016 44.7299C239.766 44.4999 240.581 44.3849 241.461 44.3849C242.121 44.3849 242.741 44.4549 243.321 44.5949C243.901 44.7249 244.431 44.9199 244.911 45.1799H249.336ZM259.816 53.4749C258.746 53.5249 257.846 53.6199 257.116 53.7599C256.386 53.8899 255.801 54.0599 255.361 54.2699C254.921 54.4799 254.606 54.7249 254.416 55.0049C254.226 55.2849 254.131 55.5899 254.131 55.9199C254.131 56.5699 254.321 57.0349 254.701 57.3149C255.091 57.5949 255.596 57.7349 256.216 57.7349C256.976 57.7349 257.631 57.5999 258.181 57.3299C258.741 57.0499 259.286 56.6299 259.816 56.0699V53.4749ZM251.326 46.7999C253.096 45.1799 255.226 44.3699 257.716 44.3699C258.616 44.3699 259.421 44.5199 260.131 44.8199C260.841 45.1099 261.441 45.5199 261.931 46.0499C262.421 46.5699 262.791 47.1949 263.041 47.9249C263.301 48.6549 263.431 49.4549 263.431 50.3249V60.0449H261.751C261.401 60.0449 261.131 59.9949 260.941 59.8949C260.751 59.7849 260.601 59.5699 260.491 59.2499L260.161 58.1399C259.771 58.4899 259.391 58.7999 259.021 59.0699C258.651 59.3299 258.266 59.5499 257.866 59.7299C257.466 59.9099 257.036 60.0449 256.576 60.1349C256.126 60.2349 255.626 60.2849 255.076 60.2849C254.426 60.2849 253.826 60.1999 253.276 60.0299C252.726 59.8499 252.251 59.5849 251.851 59.2349C251.451 58.8849 251.141 58.4499 250.921 57.9299C250.701 57.4099 250.591 56.8049 250.591 56.1149C250.591 55.7249 250.656 55.3399 250.786 54.9599C250.916 54.5699 251.126 54.1999 251.416 53.8499C251.716 53.4999 252.101 53.1699 252.571 52.8599C253.041 52.5499 253.616 52.2799 254.296 52.0499C254.986 51.8199 255.786 51.6349 256.696 51.4949C257.606 51.3449 258.646 51.2549 259.816 51.2249V50.3249C259.816 49.2949 259.596 48.5349 259.156 48.0449C258.716 47.5449 258.081 47.2949 257.251 47.2949C256.651 47.2949 256.151 47.3649 255.751 47.5049C255.361 47.6449 255.016 47.8049 254.716 47.9849C254.416 48.1549 254.141 48.3099 253.891 48.4499C253.651 48.5899 253.381 48.6599 253.081 48.6599C252.821 48.6599 252.601 48.5949 252.421 48.4649C252.241 48.3249 252.096 48.1649 251.986 47.9849L251.326 46.7999ZM270.385 46.5449C270.695 46.2349 271.02 45.9499 271.36 45.6899C271.71 45.4199 272.075 45.1949 272.455 45.0149C272.845 44.8249 273.26 44.6799 273.7 44.5799C274.14 44.4699 274.62 44.4149 275.14 44.4149C275.98 44.4149 276.725 44.5599 277.375 44.8499C278.025 45.1299 278.565 45.5299 278.995 46.0499C279.435 46.5599 279.765 47.1749 279.985 47.8949C280.215 48.6049 280.33 49.3899 280.33 50.2499V60.0449H276.625V50.2499C276.625 49.3099 276.41 48.5849 275.98 48.0749C275.55 47.5549 274.895 47.2949 274.015 47.2949C273.375 47.2949 272.775 47.4399 272.215 47.7299C271.655 48.0199 271.125 48.4149 270.625 48.9149V60.0449H266.92V44.6549H269.185C269.665 44.6549 269.98 44.8799 270.13 45.3299L270.385 46.5449ZM287.694 44.6549V60.0449H283.974V44.6549H287.694ZM288.204 40.1699C288.204 40.4899 288.139 40.7899 288.009 41.0699C287.879 41.3499 287.704 41.5949 287.484 41.8049C287.274 42.0149 287.024 42.1849 286.734 42.3149C286.444 42.4349 286.134 42.4949 285.804 42.4949C285.484 42.4949 285.179 42.4349 284.889 42.3149C284.609 42.1849 284.364 42.0149 284.154 41.8049C283.944 41.5949 283.774 41.3499 283.644 41.0699C283.524 40.7899 283.464 40.4899 283.464 40.1699C283.464 39.8399 283.524 39.5299 283.644 39.2399C283.774 38.9499 283.944 38.6999 284.154 38.4899C284.364 38.2799 284.609 38.1149 284.889 37.9949C285.179 37.8649 285.484 37.7999 285.804 37.7999C286.134 37.7999 286.444 37.8649 286.734 37.9949C287.024 38.1149 287.274 38.2799 287.484 38.4899C287.704 38.6999 287.879 38.9499 288.009 39.2399C288.139 39.5299 288.204 39.8399 288.204 40.1699ZM302.526 46.1849C302.526 46.4449 302.481 46.6999 302.391 46.9499C302.301 47.1999 302.181 47.4049 302.031 47.5649L294.726 57.1949H302.301V60.0449H290.421V58.4999C290.421 58.3299 290.461 58.1299 290.541 57.8999C290.621 57.6599 290.741 57.4349 290.901 57.2249L298.281 47.4899H290.856V44.6549H302.526V46.1849ZM314.921 50.5799C314.921 50.0999 314.851 49.6499 314.711 49.2299C314.581 48.7999 314.381 48.4249 314.111 48.1049C313.841 47.7849 313.496 47.5349 313.076 47.3549C312.666 47.1649 312.186 47.0699 311.636 47.0699C310.566 47.0699 309.721 47.3749 309.101 47.9849C308.491 48.5949 308.101 49.4599 307.931 50.5799H314.921ZM307.856 52.8149C307.916 53.6049 308.056 54.2899 308.276 54.8699C308.496 55.4399 308.786 55.9149 309.146 56.2949C309.506 56.6649 309.931 56.9449 310.421 57.1349C310.921 57.3149 311.471 57.4049 312.071 57.4049C312.671 57.4049 313.186 57.3349 313.616 57.1949C314.056 57.0549 314.436 56.8999 314.756 56.7299C315.086 56.5599 315.371 56.4049 315.611 56.2649C315.861 56.1249 316.101 56.0549 316.331 56.0549C316.641 56.0549 316.871 56.1699 317.021 56.3999L318.086 57.7499C317.676 58.2299 317.216 58.6349 316.706 58.9649C316.196 59.2849 315.661 59.5449 315.101 59.7449C314.551 59.9349 313.986 60.0699 313.406 60.1499C312.836 60.2299 312.281 60.2699 311.741 60.2699C310.671 60.2699 309.676 60.0949 308.756 59.7449C307.836 59.3849 307.036 58.8599 306.356 58.1699C305.676 57.4699 305.141 56.6099 304.751 55.5899C304.361 54.5599 304.166 53.3699 304.166 52.0199C304.166 50.9699 304.336 49.9849 304.676 49.0649C305.016 48.1349 305.501 47.3299 306.131 46.6499C306.771 45.9599 307.546 45.4149 308.456 45.0149C309.376 44.6149 310.411 44.4149 311.561 44.4149C312.531 44.4149 313.426 44.5699 314.246 44.8799C315.066 45.1899 315.771 45.6449 316.361 46.2449C316.951 46.8349 317.411 47.5649 317.741 48.4349C318.081 49.2949 318.251 50.2799 318.251 51.3899C318.251 51.9499 318.191 52.3299 318.071 52.5299C317.951 52.7199 317.721 52.8149 317.381 52.8149H307.856ZM324.527 47.3249C325.007 46.4049 325.577 45.6849 326.237 45.1649C326.897 44.6349 327.677 44.3699 328.577 44.3699C329.287 44.3699 329.857 44.5249 330.287 44.8349L330.047 47.6099C329.997 47.7899 329.922 47.9199 329.822 47.9999C329.732 48.0699 329.607 48.1049 329.447 48.1049C329.297 48.1049 329.072 48.0799 328.772 48.0299C328.482 47.9799 328.197 47.9549 327.917 47.9549C327.507 47.9549 327.142 48.0149 326.822 48.1349C326.502 48.2549 326.212 48.4299 325.952 48.6599C325.702 48.8799 325.477 49.1499 325.277 49.4699C325.087 49.7899 324.907 50.1549 324.737 50.5649V60.0449H321.032V44.6549H323.207C323.587 44.6549 323.852 44.7249 324.002 44.8649C324.152 44.9949 324.252 45.2349 324.302 45.5849L324.527 47.3249ZM341.554 47.6549C341.454 47.8149 341.349 47.9299 341.239 47.9999C341.129 48.0599 340.989 48.0899 340.819 48.0899C340.639 48.0899 340.444 48.0399 340.234 47.9399C340.034 47.8399 339.799 47.7299 339.529 47.6099C339.259 47.4799 338.949 47.3649 338.599 47.2649C338.259 47.1649 337.854 47.1149 337.384 47.1149C336.654 47.1149 336.079 47.2699 335.659 47.5799C335.249 47.8899 335.044 48.2949 335.044 48.7949C335.044 49.1249 335.149 49.4049 335.359 49.6349C335.579 49.8549 335.864 50.0499 336.214 50.2199C336.574 50.3899 336.979 50.5449 337.429 50.6849C337.879 50.8149 338.334 50.9599 338.794 51.1199C339.264 51.2799 339.724 51.4649 340.174 51.6749C340.624 51.8749 341.024 52.1349 341.374 52.4549C341.734 52.7649 342.019 53.1399 342.229 53.5799C342.449 54.0199 342.559 54.5499 342.559 55.1699C342.559 55.9099 342.424 56.5949 342.154 57.2249C341.894 57.8449 341.504 58.3849 340.984 58.8449C340.464 59.2949 339.819 59.6499 339.049 59.9099C338.289 60.1599 337.409 60.2849 336.409 60.2849C335.879 60.2849 335.359 60.2349 334.849 60.1349C334.349 60.0449 333.864 59.9149 333.394 59.7449C332.934 59.5749 332.504 59.3749 332.104 59.1449C331.714 58.9149 331.369 58.6649 331.069 58.3949L331.924 56.9849C332.034 56.8149 332.164 56.6849 332.314 56.5949C332.464 56.5049 332.654 56.4599 332.884 56.4599C333.114 56.4599 333.329 56.5249 333.529 56.6549C333.739 56.7849 333.979 56.9249 334.249 57.0749C334.519 57.2249 334.834 57.3649 335.194 57.4949C335.564 57.6249 336.029 57.6899 336.589 57.6899C337.029 57.6899 337.404 57.6399 337.714 57.5399C338.034 57.4299 338.294 57.2899 338.494 57.1199C338.704 56.9499 338.854 56.7549 338.944 56.5349C339.044 56.3049 339.094 56.0699 339.094 55.8299C339.094 55.4699 338.984 55.1749 338.764 54.9449C338.554 54.7149 338.269 54.5149 337.909 54.3449C337.559 54.1749 337.154 54.0249 336.694 53.8949C336.244 53.7549 335.779 53.6049 335.299 53.4449C334.829 53.2849 334.364 53.0999 333.904 52.8899C333.454 52.6699 333.049 52.3949 332.689 52.0649C332.339 51.7349 332.054 51.3299 331.834 50.8499C331.624 50.3699 331.519 49.7899 331.519 49.1099C331.519 48.4799 331.644 47.8799 331.894 47.3099C332.144 46.7399 332.509 46.2449 332.989 45.8249C333.479 45.3949 334.084 45.0549 334.804 44.8049C335.534 44.5449 336.374 44.4149 337.324 44.4149C338.384 44.4149 339.349 44.5899 340.219 44.9399C341.089 45.2899 341.814 45.7499 342.394 46.3199L341.554 47.6549Z" fill="#141F29"/>
</svg>
