<svg width="318" height="97" viewBox="0 0 318 97" fill="none" xmlns="http://www.w3.org/2000/svg">
<path d="M30.4713 57.0573L40.1346 58.9899L41.5842 56.091M51.7307 64.788V57.0573L43.9999 51.2594L45.9326 39.6633M45.9326 39.6633L36.2693 41.596V47.394M45.9326 39.6633L51.7307 45.4613L57.5286 47.394M30.4713 58.3593L40.1346 60.2919L41.5842 57.393M51.7307 66.09V58.3593L43.9999 52.5614L45.9326 40.9653M45.9326 40.9653L36.2693 42.898V48.696M45.9326 40.9653L51.7307 46.7633L57.5286 48.696M45.9326 31.9327C45.9326 32.4453 46.1362 32.9368 46.4987 33.2993C46.8612 33.6617 47.3527 33.8653 47.8653 33.8653C48.3779 33.8653 48.8694 33.6617 49.2319 33.2993C49.5944 32.9368 49.798 32.4453 49.798 31.9327C49.798 31.4201 49.5944 30.9285 49.2319 30.5661C48.8694 30.2036 48.3779 30 47.8653 30C47.3527 30 46.8612 30.2036 46.4987 30.5661C46.1362 30.9285 45.9326 31.4201 45.9326 31.9327ZM45.9326 33.2347C45.9326 33.7473 46.1362 34.2388 46.4987 34.6013C46.8612 34.9637 47.3527 35.1673 47.8653 35.1673C48.3779 35.1673 48.8694 34.9637 49.2319 34.6013C49.5944 34.2388 49.798 33.7473 49.798 33.2347C49.798 32.7221 49.5944 32.2305 49.2319 31.8681C48.8694 31.5056 48.3779 31.302 47.8653 31.302C47.3527 31.302 46.8612 31.5056 46.4987 31.8681C46.1362 32.2305 45.9326 32.7221 45.9326 33.2347Z" stroke="#141F29" stroke-width="2" stroke-linecap="round" stroke-linejoin="round"/>
<path d="M74.0278 41.5649V47.9849H82.1578V51.2099H74.0278V60.0449H69.9778V38.3549H83.6578V41.5649H74.0278ZM93.525 48.6749C94.285 48.6749 94.945 48.5799 95.505 48.3899C96.075 48.1999 96.54 47.9399 96.9 47.6099C97.27 47.2699 97.545 46.8699 97.725 46.4099C97.905 45.9499 97.995 45.4449 97.995 44.8949C97.995 43.7949 97.63 42.9499 96.9 42.3599C96.18 41.7699 95.075 41.4749 93.585 41.4749H91.005V48.6749H93.525ZM103.905 60.0449H100.26C99.57 60.0449 99.07 59.7749 98.76 59.2349L94.2 52.2899C94.03 52.0299 93.84 51.8449 93.63 51.7349C93.43 51.6249 93.13 51.5699 92.73 51.5699H91.005V60.0449H86.97V38.3549H93.585C95.055 38.3549 96.315 38.5099 97.365 38.8199C98.425 39.1199 99.29 39.5449 99.96 40.0949C100.64 40.6449 101.14 41.3049 101.46 42.0749C101.78 42.8349 101.94 43.6749 101.94 44.5949C101.94 45.3249 101.83 46.0149 101.61 46.6649C101.4 47.3149 101.09 47.9049 100.68 48.4349C100.28 48.9649 99.78 49.4299 99.18 49.8299C98.59 50.2299 97.915 50.5449 97.155 50.7749C97.415 50.9249 97.655 51.1049 97.875 51.3149C98.095 51.5149 98.295 51.7549 98.475 52.0349L103.905 60.0449ZM110.297 41.5649V47.5799H117.887V50.6849H110.297V56.8199H119.927V60.0449H106.247V38.3549H119.927V41.5649H110.297ZM127.553 41.5649V47.5799H135.143V50.6849H127.553V56.8199H137.183V60.0449H123.503V38.3549H137.183V41.5649H127.553ZM148.549 60.0449V47.4449L147.214 47.2349C146.924 47.1749 146.689 47.0749 146.509 46.9349C146.339 46.7849 146.254 46.5749 146.254 46.3049V44.7899H148.549V43.6499C148.549 42.7699 148.679 41.9799 148.939 41.2799C149.209 40.5799 149.589 39.9849 150.079 39.4949C150.579 39.0049 151.184 38.6299 151.894 38.3699C152.604 38.1099 153.404 37.9799 154.294 37.9799C155.004 37.9799 155.664 38.0749 156.274 38.2649L156.199 40.1249C156.189 40.2649 156.149 40.3799 156.079 40.4699C156.009 40.5499 155.914 40.6149 155.794 40.6649C155.684 40.7049 155.554 40.7349 155.404 40.7549C155.254 40.7649 155.094 40.7699 154.924 40.7699C154.484 40.7699 154.089 40.8199 153.739 40.9199C153.399 41.0099 153.109 41.1749 152.869 41.4149C152.629 41.6449 152.444 41.9549 152.314 42.3449C152.194 42.7249 152.134 43.1999 152.134 43.7699V44.7899H156.139V47.4299H152.254V60.0449H148.549ZM164.621 44.4149C165.761 44.4149 166.796 44.5999 167.726 44.9699C168.666 45.3399 169.466 45.8649 170.126 46.5449C170.796 47.2249 171.311 48.0549 171.671 49.0349C172.031 50.0149 172.211 51.1099 172.211 52.3199C172.211 53.5399 172.031 54.6399 171.671 55.6199C171.311 56.5999 170.796 57.4349 170.126 58.1249C169.466 58.8149 168.666 59.3449 167.726 59.7149C166.796 60.0849 165.761 60.2699 164.621 60.2699C163.471 60.2699 162.426 60.0849 161.486 59.7149C160.546 59.3449 159.741 58.8149 159.071 58.1249C158.411 57.4349 157.896 56.5999 157.526 55.6199C157.166 54.6399 156.986 53.5399 156.986 52.3199C156.986 51.1099 157.166 50.0149 157.526 49.0349C157.896 48.0549 158.411 47.2249 159.071 46.5449C159.741 45.8649 160.546 45.3399 161.486 44.9699C162.426 44.5999 163.471 44.4149 164.621 44.4149ZM164.621 57.4199C165.901 57.4199 166.846 56.9899 167.456 56.1299C168.076 55.2699 168.386 54.0099 168.386 52.3499C168.386 50.6899 168.076 49.4249 167.456 48.5549C166.846 47.6849 165.901 47.2499 164.621 47.2499C163.321 47.2499 162.356 47.6899 161.726 48.5699C161.106 49.4399 160.796 50.6999 160.796 52.3499C160.796 53.9999 161.106 55.2599 161.726 56.1299C162.356 56.9899 163.321 57.4199 164.621 57.4199ZM178.532 47.3249C179.012 46.4049 179.582 45.6849 180.242 45.1649C180.902 44.6349 181.682 44.3699 182.582 44.3699C183.292 44.3699 183.862 44.5249 184.292 44.8349L184.052 47.6099C184.002 47.7899 183.927 47.9199 183.827 47.9999C183.737 48.0699 183.612 48.1049 183.452 48.1049C183.302 48.1049 183.077 48.0799 182.777 48.0299C182.487 47.9799 182.202 47.9549 181.922 47.9549C181.512 47.9549 181.147 48.0149 180.827 48.1349C180.507 48.2549 180.217 48.4299 179.957 48.6599C179.707 48.8799 179.482 49.1499 179.282 49.4699C179.092 49.7899 178.912 50.1549 178.742 50.5649V60.0449H175.037V44.6549H177.212C177.592 44.6549 177.857 44.7249 178.007 44.8649C178.157 44.9949 178.257 45.2349 178.307 45.5849L178.532 47.3249ZM200.514 49.2599C201.254 49.2599 201.899 49.1699 202.449 48.9899C202.999 48.7999 203.454 48.5349 203.814 48.1949C204.184 47.8449 204.459 47.4249 204.639 46.9349C204.819 46.4349 204.909 45.8799 204.909 45.2699C204.909 44.6899 204.819 44.1649 204.639 43.6949C204.459 43.2249 204.189 42.8249 203.829 42.4949C203.469 42.1649 203.014 41.9149 202.464 41.7449C201.914 41.5649 201.264 41.4749 200.514 41.4749H197.499V49.2599H200.514ZM200.514 38.3549C201.964 38.3549 203.219 38.5249 204.279 38.8649C205.339 39.2049 206.214 39.6799 206.904 40.2899C207.594 40.8999 208.104 41.6299 208.434 42.4799C208.774 43.3299 208.944 44.2599 208.944 45.2699C208.944 46.3199 208.769 47.2849 208.419 48.1649C208.069 49.0349 207.544 49.7849 206.844 50.4149C206.144 51.0449 205.264 51.5349 204.204 51.8849C203.154 52.2349 201.924 52.4099 200.514 52.4099H197.499V60.0449H193.464V38.3549H200.514ZM215.145 37.7549V60.0449H211.44V37.7549H215.145ZM226.966 53.4749C225.896 53.5249 224.996 53.6199 224.266 53.7599C223.536 53.8899 222.951 54.0599 222.511 54.2699C222.071 54.4799 221.756 54.7249 221.566 55.0049C221.376 55.2849 221.281 55.5899 221.281 55.9199C221.281 56.5699 221.471 57.0349 221.851 57.3149C222.241 57.5949 222.746 57.7349 223.366 57.7349C224.126 57.7349 224.781 57.5999 225.331 57.3299C225.891 57.0499 226.436 56.6299 226.966 56.0699V53.4749ZM218.476 46.7999C220.246 45.1799 222.376 44.3699 224.866 44.3699C225.766 44.3699 226.571 44.5199 227.281 44.8199C227.991 45.1099 228.591 45.5199 229.081 46.0499C229.571 46.5699 229.941 47.1949 230.191 47.9249C230.451 48.6549 230.581 49.4549 230.581 50.3249V60.0449H228.901C228.551 60.0449 228.281 59.9949 228.091 59.8949C227.901 59.7849 227.751 59.5699 227.641 59.2499L227.311 58.1399C226.921 58.4899 226.541 58.7999 226.171 59.0699C225.801 59.3299 225.416 59.5499 225.016 59.7299C224.616 59.9099 224.186 60.0449 223.726 60.1349C223.276 60.2349 222.776 60.2849 222.226 60.2849C221.576 60.2849 220.976 60.1999 220.426 60.0299C219.876 59.8499 219.401 59.5849 219.001 59.2349C218.601 58.8849 218.291 58.4499 218.071 57.9299C217.851 57.4099 217.741 56.8049 217.741 56.1149C217.741 55.7249 217.806 55.3399 217.936 54.9599C218.066 54.5699 218.276 54.1999 218.566 53.8499C218.866 53.4999 219.251 53.1699 219.721 52.8599C220.191 52.5499 220.766 52.2799 221.446 52.0499C222.136 51.8199 222.936 51.6349 223.846 51.4949C224.756 51.3449 225.796 51.2549 226.966 51.2249V50.3249C226.966 49.2949 226.746 48.5349 226.306 48.0449C225.866 47.5449 225.231 47.2949 224.401 47.2949C223.801 47.2949 223.301 47.3649 222.901 47.5049C222.511 47.6449 222.166 47.8049 221.866 47.9849C221.566 48.1549 221.291 48.3099 221.041 48.4499C220.801 48.5899 220.531 48.6599 220.231 48.6599C219.971 48.6599 219.751 48.5949 219.571 48.4649C219.391 48.3249 219.246 48.1649 219.136 47.9849L218.476 46.7999ZM247.611 44.6549L239.226 64.2749C239.116 64.5349 238.971 64.7299 238.791 64.8599C238.621 64.9999 238.356 65.0699 237.996 65.0699H235.236L238.116 58.8899L231.891 44.6549H235.146C235.436 44.6549 235.661 44.7249 235.821 44.8649C235.991 45.0049 236.116 45.1649 236.196 45.3449L239.466 53.3249C239.576 53.5949 239.666 53.8649 239.736 54.1349C239.816 54.4049 239.891 54.6799 239.961 54.9599C240.051 54.6799 240.141 54.4049 240.231 54.1349C240.321 53.8549 240.421 53.5799 240.531 53.3099L243.621 45.3449C243.701 45.1449 243.831 44.9799 244.011 44.8499C244.201 44.7199 244.411 44.6549 244.641 44.6549H247.611ZM258.898 50.5799C258.898 50.0999 258.828 49.6499 258.688 49.2299C258.558 48.7999 258.358 48.4249 258.088 48.1049C257.818 47.7849 257.473 47.5349 257.053 47.3549C256.643 47.1649 256.163 47.0699 255.613 47.0699C254.543 47.0699 253.698 47.3749 253.078 47.9849C252.468 48.5949 252.078 49.4599 251.908 50.5799H258.898ZM251.833 52.8149C251.893 53.6049 252.033 54.2899 252.253 54.8699C252.473 55.4399 252.763 55.9149 253.123 56.2949C253.483 56.6649 253.908 56.9449 254.398 57.1349C254.898 57.3149 255.448 57.4049 256.048 57.4049C256.648 57.4049 257.163 57.3349 257.593 57.1949C258.033 57.0549 258.413 56.8999 258.733 56.7299C259.063 56.5599 259.348 56.4049 259.588 56.2649C259.838 56.1249 260.078 56.0549 260.308 56.0549C260.618 56.0549 260.848 56.1699 260.998 56.3999L262.063 57.7499C261.653 58.2299 261.193 58.6349 260.683 58.9649C260.173 59.2849 259.638 59.5449 259.078 59.7449C258.528 59.9349 257.963 60.0699 257.383 60.1499C256.813 60.2299 256.258 60.2699 255.718 60.2699C254.648 60.2699 253.653 60.0949 252.733 59.7449C251.813 59.3849 251.013 58.8599 250.333 58.1699C249.653 57.4699 249.118 56.6099 248.728 55.5899C248.338 54.5599 248.143 53.3699 248.143 52.0199C248.143 50.9699 248.313 49.9849 248.653 49.0649C248.993 48.1349 249.478 47.3299 250.108 46.6499C250.748 45.9599 251.523 45.4149 252.433 45.0149C253.353 44.6149 254.388 44.4149 255.538 44.4149C256.508 44.4149 257.403 44.5699 258.223 44.8799C259.043 45.1899 259.748 45.6449 260.338 46.2449C260.928 46.8349 261.388 47.5649 261.718 48.4349C262.058 49.2949 262.228 50.2799 262.228 51.3899C262.228 51.9499 262.168 52.3299 262.048 52.5299C261.928 52.7199 261.698 52.8149 261.358 52.8149H251.833ZM268.503 47.3249C268.983 46.4049 269.553 45.6849 270.213 45.1649C270.873 44.6349 271.653 44.3699 272.553 44.3699C273.263 44.3699 273.833 44.5249 274.263 44.8349L274.023 47.6099C273.973 47.7899 273.898 47.9199 273.798 47.9999C273.708 48.0699 273.583 48.1049 273.423 48.1049C273.273 48.1049 273.048 48.0799 272.748 48.0299C272.458 47.9799 272.173 47.9549 271.893 47.9549C271.483 47.9549 271.118 48.0149 270.798 48.1349C270.478 48.2549 270.188 48.4299 269.928 48.6599C269.678 48.8799 269.453 49.1499 269.253 49.4699C269.063 49.7899 268.883 50.1549 268.713 50.5649V60.0449H265.008V44.6549H267.183C267.563 44.6549 267.828 44.7249 267.978 44.8649C268.128 44.9949 268.228 45.2349 268.278 45.5849L268.503 47.3249ZM285.531 47.6549C285.431 47.8149 285.326 47.9299 285.216 47.9999C285.106 48.0599 284.966 48.0899 284.796 48.0899C284.616 48.0899 284.421 48.0399 284.211 47.9399C284.011 47.8399 283.776 47.7299 283.506 47.6099C283.236 47.4799 282.926 47.3649 282.576 47.2649C282.236 47.1649 281.831 47.1149 281.361 47.1149C280.631 47.1149 280.056 47.2699 279.636 47.5799C279.226 47.8899 279.021 48.2949 279.021 48.7949C279.021 49.1249 279.126 49.4049 279.336 49.6349C279.556 49.8549 279.841 50.0499 280.191 50.2199C280.551 50.3899 280.956 50.5449 281.406 50.6849C281.856 50.8149 282.311 50.9599 282.771 51.1199C283.241 51.2799 283.701 51.4649 284.151 51.6749C284.601 51.8749 285.001 52.1349 285.351 52.4549C285.711 52.7649 285.996 53.1399 286.206 53.5799C286.426 54.0199 286.536 54.5499 286.536 55.1699C286.536 55.9099 286.401 56.5949 286.131 57.2249C285.871 57.8449 285.481 58.3849 284.961 58.8449C284.441 59.2949 283.796 59.6499 283.026 59.9099C282.266 60.1599 281.386 60.2849 280.386 60.2849C279.856 60.2849 279.336 60.2349 278.826 60.1349C278.326 60.0449 277.841 59.9149 277.371 59.7449C276.911 59.5749 276.481 59.3749 276.081 59.1449C275.691 58.9149 275.346 58.6649 275.046 58.3949L275.901 56.9849C276.011 56.8149 276.141 56.6849 276.291 56.5949C276.441 56.5049 276.631 56.4599 276.861 56.4599C277.091 56.4599 277.306 56.5249 277.506 56.6549C277.716 56.7849 277.956 56.9249 278.226 57.0749C278.496 57.2249 278.811 57.3649 279.171 57.4949C279.541 57.6249 280.006 57.6899 280.566 57.6899C281.006 57.6899 281.381 57.6399 281.691 57.5399C282.011 57.4299 282.271 57.2899 282.471 57.1199C282.681 56.9499 282.831 56.7549 282.921 56.5349C283.021 56.3049 283.071 56.0699 283.071 55.8299C283.071 55.4699 282.961 55.1749 282.741 54.9449C282.531 54.7149 282.246 54.5149 281.886 54.3449C281.536 54.1749 281.131 54.0249 280.671 53.8949C280.221 53.7549 279.756 53.6049 279.276 53.4449C278.806 53.2849 278.341 53.0999 277.881 52.8899C277.431 52.6699 277.026 52.3949 276.666 52.0649C276.316 51.7349 276.031 51.3299 275.811 50.8499C275.601 50.3699 275.496 49.7899 275.496 49.1099C275.496 48.4799 275.621 47.8799 275.871 47.3099C276.121 46.7399 276.486 46.2449 276.966 45.8249C277.456 45.3949 278.061 45.0549 278.781 44.8049C279.511 44.5449 280.351 44.4149 281.301 44.4149C282.361 44.4149 283.326 44.5899 284.196 44.9399C285.066 45.2899 285.791 45.7499 286.371 46.3199L285.531 47.6549Z" fill="#141F29"/>
</svg>
