<svg width="30" height="30" viewBox="0 0 30 30" fill="none" xmlns="http://www.w3.org/2000/svg">
<path d="M12.5087 2.63008C10.7568 2.06294 8.85226 2.85181 8.01445 4.49169L7.00722 6.46315C6.88755 6.6974 6.69703 6.88791 6.46278 7.00759L4.49132 8.01481C2.85145 8.85263 2.06257 10.7572 2.62971 12.5091L3.31154 14.6154C3.39255 14.8656 3.39255 15.1351 3.31154 15.3854L2.62971 17.4916C2.06257 19.2436 2.85145 21.1481 4.49132 21.986L6.46278 22.9931C6.69703 23.1129 6.88755 23.3034 7.00722 23.5376L8.01445 25.5091C8.85226 27.149 10.7568 27.9379 12.5087 27.3707L14.615 26.6889C14.8652 26.6079 15.1347 26.6079 15.385 26.6889L17.4912 27.3707C19.2432 27.9379 21.1477 27.149 21.9856 25.5091L22.9927 23.5376C23.1125 23.3034 23.303 23.1129 23.5372 22.9931L25.5087 21.986C27.1486 21.1481 27.9375 19.2436 27.3704 17.4916L26.6885 15.3854C26.6075 15.1351 26.6075 14.8656 26.6885 14.6154L27.3704 12.5091C27.9375 10.7572 27.1486 8.85263 25.5087 8.01481L23.5372 7.00759C23.303 6.88791 23.1125 6.6974 22.9927 6.46315L21.9856 4.49169C21.1477 2.85181 19.2432 2.06294 17.4912 2.63008L15.385 3.3119C15.1347 3.3929 14.8652 3.39291 14.615 3.3119L12.5087 2.63008ZM8.44971 14.697L10.2175 12.9291L13.753 16.4647L20.8241 9.39368L22.5919 11.1614L13.753 20.0002L8.44971 14.697Z" fill="black"/>
</svg>
