<svg width="144" height="106" viewBox="0 0 144 106" fill="none" xmlns="http://www.w3.org/2000/svg">
<g clip-path="url(#clip0_1390_1212)">
<path d="M70.9688 6.02972V18.9579C70.9688 21.3816 72.3157 23.4012 74.605 24.2095L99.3833 33.0974C104.231 34.847 104.231 41.8496 99.3833 43.6004L74.605 52.4882C72.3157 53.2967 70.9688 55.3163 70.9688 57.74V70.5326C70.9688 74.4386 74.8748 77.1308 78.5099 75.6497L138.435 50.7374C140.455 49.9301 141.801 47.7752 141.801 45.62V30.9422C141.801 28.6528 140.455 26.6332 138.435 25.6906L78.5099 0.912444C74.8748 -0.568665 70.9688 2.12488 70.9688 6.02972Z" fill="#141F29"/>
<path d="M70.9668 98.0072V85.0805C70.9668 82.7909 69.4857 80.636 67.1964 79.8275L42.5526 71.0753C37.5708 69.3245 37.5708 62.1875 42.5526 60.4367L67.1964 51.683C69.4857 50.876 70.9668 48.7208 70.9668 46.2971V33.6389C70.9668 29.5996 66.9267 26.9061 63.2916 28.3872L3.36636 53.2997C1.34677 54.2423 0 56.2619 0 58.5512V73.0949C0 75.3842 1.34677 77.5394 3.36636 78.3464L63.2916 103.125C66.9267 104.74 70.9668 102.048 70.9668 98.0072Z" fill="#141F29"/>
</g>
<defs>
<clipPath id="clip0_1390_1212">
<rect width="144" height="105" fill="white" transform="translate(0 0.5)"/>
</clipPath>
</defs>
</svg>
