<svg width="335" height="97" viewBox="0 0 335 97" fill="none" xmlns="http://www.w3.org/2000/svg">
<path d="M33.4238 43.7148H61.1322C61.9376 43.7148 62.5905 44.3678 62.5905 45.1732V59.7565C62.5905 60.562 61.9376 61.2149 61.1322 61.2149H34.8821C34.0767 61.2149 33.4238 60.562 33.4238 59.7565V43.7148ZM34.8821 34.9648H56.7572V40.7982H33.4238V36.4232C33.4238 35.6178 34.0767 34.9648 34.8821 34.9648ZM52.3822 51.0065V53.9232H56.7572V51.0065H52.3822Z" fill="#141F29"/>
<path d="M89.5314 42.3448C89.4114 42.5548 89.2814 42.7098 89.1414 42.8098C89.0114 42.8998 88.8464 42.9448 88.6464 42.9448C88.4364 42.9448 88.2064 42.8698 87.9564 42.7198C87.7164 42.5598 87.4264 42.3848 87.0864 42.1948C86.7464 42.0048 86.3464 41.8348 85.8864 41.6848C85.4364 41.5248 84.9014 41.4448 84.2814 41.4448C83.7214 41.4448 83.2314 41.5148 82.8114 41.6548C82.3914 41.7848 82.0364 41.9698 81.7464 42.2098C81.4664 42.4498 81.2564 42.7398 81.1164 43.0798C80.9764 43.4098 80.9064 43.7748 80.9064 44.1748C80.9064 44.6848 81.0464 45.1098 81.3264 45.4498C81.6164 45.7898 81.9964 46.0798 82.4664 46.3198C82.9364 46.5598 83.4714 46.7748 84.0714 46.9648C84.6714 47.1548 85.2864 47.3598 85.9164 47.5798C86.5464 47.7898 87.1614 48.0398 87.7614 48.3298C88.3614 48.6098 88.8964 48.9698 89.3664 49.4098C89.8364 49.8398 90.2114 50.3698 90.4914 50.9998C90.7814 51.6298 90.9264 52.3948 90.9264 53.2948C90.9264 54.2748 90.7564 55.1948 90.4164 56.0548C90.0864 56.9048 89.5964 57.6498 88.9464 58.2898C88.3064 58.9198 87.5214 59.4198 86.5914 59.7898C85.6614 60.1498 84.5964 60.3298 83.3964 60.3298C82.7064 60.3298 82.0264 60.2598 81.3564 60.1198C80.6864 59.9898 80.0414 59.7998 79.4214 59.5498C78.8114 59.2998 78.2364 58.9998 77.6964 58.6498C77.1564 58.2998 76.6764 57.9098 76.2564 57.4798L77.4414 55.5448C77.5414 55.4048 77.6714 55.2898 77.8314 55.1998C77.9914 55.0998 78.1614 55.0498 78.3414 55.0498C78.5914 55.0498 78.8614 55.1548 79.1514 55.3648C79.4414 55.5648 79.7864 55.7898 80.1864 56.0398C80.5864 56.2898 81.0514 56.5198 81.5814 56.7298C82.1214 56.9298 82.7664 57.0298 83.5164 57.0298C84.6664 57.0298 85.5564 56.7598 86.1864 56.2198C86.8164 55.6698 87.1314 54.8848 87.1314 53.8648C87.1314 53.2948 86.9864 52.8298 86.6964 52.4698C86.4164 52.1098 86.0414 51.8098 85.5714 51.5698C85.1014 51.3198 84.5664 51.1098 83.9664 50.9398C83.3664 50.7698 82.7564 50.5848 82.1364 50.3848C81.5164 50.1848 80.9064 49.9448 80.3064 49.6648C79.7064 49.3848 79.1714 49.0198 78.7014 48.5698C78.2314 48.1198 77.8514 47.5598 77.5614 46.8898C77.2814 46.2098 77.1414 45.3748 77.1414 44.3848C77.1414 43.5948 77.2964 42.8248 77.6064 42.0748C77.9264 41.3248 78.3864 40.6598 78.9864 40.0798C79.5864 39.4998 80.3264 39.0348 81.2064 38.6848C82.0864 38.3348 83.0964 38.1598 84.2364 38.1598C85.5164 38.1598 86.6964 38.3598 87.7764 38.7598C88.8564 39.1598 89.7764 39.7198 90.5364 40.4398L89.5314 42.3448ZM103.718 50.6248C103.718 50.1448 103.648 49.6948 103.508 49.2748C103.378 48.8448 103.178 48.4698 102.908 48.1498C102.638 47.8298 102.293 47.5798 101.873 47.3998C101.463 47.2098 100.983 47.1148 100.433 47.1148C99.3627 47.1148 98.5177 47.4198 97.8977 48.0298C97.2877 48.6398 96.8977 49.5048 96.7277 50.6248H103.718ZM96.6527 52.8598C96.7127 53.6498 96.8527 54.3348 97.0727 54.9148C97.2927 55.4848 97.5827 55.9598 97.9427 56.3398C98.3027 56.7098 98.7277 56.9898 99.2177 57.1798C99.7177 57.3598 100.268 57.4498 100.868 57.4498C101.468 57.4498 101.983 57.3798 102.413 57.2398C102.853 57.0998 103.233 56.9448 103.553 56.7748C103.883 56.6048 104.168 56.4498 104.408 56.3098C104.658 56.1698 104.898 56.0998 105.128 56.0998C105.438 56.0998 105.668 56.2148 105.818 56.4448L106.883 57.7948C106.473 58.2748 106.013 58.6798 105.503 59.0098C104.993 59.3298 104.458 59.5898 103.898 59.7898C103.348 59.9798 102.783 60.1148 102.203 60.1948C101.633 60.2748 101.078 60.3148 100.538 60.3148C99.4677 60.3148 98.4727 60.1398 97.5527 59.7898C96.6327 59.4298 95.8327 58.9048 95.1527 58.2148C94.4727 57.5148 93.9377 56.6548 93.5477 55.6348C93.1577 54.6048 92.9627 53.4148 92.9627 52.0648C92.9627 51.0148 93.1327 50.0298 93.4727 49.1098C93.8127 48.1798 94.2977 47.3748 94.9277 46.6948C95.5677 46.0048 96.3427 45.4598 97.2527 45.0598C98.1727 44.6598 99.2077 44.4598 100.358 44.4598C101.328 44.4598 102.223 44.6148 103.043 44.9248C103.863 45.2348 104.568 45.6898 105.158 46.2898C105.748 46.8798 106.208 47.6098 106.538 48.4798C106.878 49.3398 107.048 50.3248 107.048 51.4348C107.048 51.9948 106.988 52.3748 106.868 52.5748C106.748 52.7648 106.518 52.8598 106.178 52.8598H96.6527ZM120.853 47.9548C120.743 48.0948 120.633 48.2048 120.523 48.2848C120.423 48.3648 120.273 48.4048 120.073 48.4048C119.883 48.4048 119.698 48.3498 119.518 48.2398C119.338 48.1198 119.123 47.9898 118.873 47.8498C118.623 47.6998 118.323 47.5698 117.973 47.4598C117.633 47.3398 117.208 47.2798 116.698 47.2798C116.048 47.2798 115.478 47.3998 114.988 47.6398C114.498 47.8698 114.088 48.2048 113.758 48.6448C113.438 49.0848 113.198 49.6198 113.038 50.2498C112.878 50.8698 112.798 51.5748 112.798 52.3648C112.798 53.1848 112.883 53.9148 113.053 54.5548C113.233 55.1948 113.488 55.7348 113.818 56.1748C114.148 56.6048 114.548 56.9348 115.018 57.1648C115.488 57.3848 116.018 57.4948 116.608 57.4948C117.198 57.4948 117.673 57.4248 118.033 57.2848C118.403 57.1348 118.713 56.9748 118.963 56.8048C119.213 56.6248 119.428 56.4648 119.608 56.3248C119.798 56.1748 120.008 56.0998 120.238 56.0998C120.538 56.0998 120.763 56.2148 120.913 56.4448L121.978 57.7948C121.568 58.2748 121.123 58.6798 120.643 59.0098C120.163 59.3298 119.663 59.5898 119.143 59.7898C118.633 59.9798 118.103 60.1148 117.553 60.1948C117.013 60.2748 116.473 60.3148 115.933 60.3148C114.983 60.3148 114.088 60.1398 113.248 59.7898C112.408 59.4298 111.673 58.9098 111.043 58.2298C110.413 57.5498 109.913 56.7198 109.543 55.7398C109.183 54.7498 109.003 53.6248 109.003 52.3648C109.003 51.2348 109.163 50.1898 109.483 49.2298C109.813 48.2598 110.293 47.4248 110.923 46.7248C111.553 46.0148 112.333 45.4598 113.263 45.0598C114.193 44.6598 115.263 44.4598 116.473 44.4598C117.623 44.4598 118.628 44.6448 119.488 45.0148C120.358 45.3848 121.138 45.9148 121.828 46.6048L120.853 47.9548ZM137.561 44.6998V60.0898H135.296C134.806 60.0898 134.496 59.8648 134.366 59.4148L134.111 58.1848C133.481 58.8248 132.786 59.3448 132.026 59.7448C131.266 60.1348 130.371 60.3298 129.341 60.3298C128.501 60.3298 127.756 60.1898 127.106 59.9098C126.466 59.6198 125.926 59.2148 125.486 58.6948C125.046 58.1748 124.711 57.5598 124.481 56.8498C124.261 56.1298 124.151 55.3398 124.151 54.4798V44.6998H127.856V54.4798C127.856 55.4198 128.071 56.1498 128.501 56.6698C128.941 57.1798 129.596 57.4348 130.466 57.4348C131.106 57.4348 131.706 57.2948 132.266 57.0148C132.826 56.7248 133.356 56.3298 133.856 55.8298V44.6998H137.561ZM144.729 47.3698C145.209 46.4498 145.779 45.7298 146.439 45.2098C147.099 44.6798 147.879 44.4148 148.779 44.4148C149.489 44.4148 150.059 44.5698 150.489 44.8798L150.249 47.6548C150.199 47.8348 150.124 47.9648 150.024 48.0448C149.934 48.1148 149.809 48.1498 149.649 48.1498C149.499 48.1498 149.274 48.1248 148.974 48.0748C148.684 48.0248 148.399 47.9998 148.119 47.9998C147.709 47.9998 147.344 48.0598 147.024 48.1798C146.704 48.2998 146.414 48.4748 146.154 48.7048C145.904 48.9248 145.679 49.1948 145.479 49.5148C145.289 49.8348 145.109 50.1998 144.939 50.6098V60.0898H141.234V44.6998H143.409C143.789 44.6998 144.054 44.7698 144.204 44.9098C144.354 45.0398 144.454 45.2798 144.504 45.6298L144.729 47.3698ZM161.901 50.6248C161.901 50.1448 161.831 49.6948 161.691 49.2748C161.561 48.8448 161.361 48.4698 161.091 48.1498C160.821 47.8298 160.476 47.5798 160.056 47.3998C159.646 47.2098 159.166 47.1148 158.616 47.1148C157.546 47.1148 156.701 47.4198 156.081 48.0298C155.471 48.6398 155.081 49.5048 154.911 50.6248H161.901ZM154.836 52.8598C154.896 53.6498 155.036 54.3348 155.256 54.9148C155.476 55.4848 155.766 55.9598 156.126 56.3398C156.486 56.7098 156.911 56.9898 157.401 57.1798C157.901 57.3598 158.451 57.4498 159.051 57.4498C159.651 57.4498 160.166 57.3798 160.596 57.2398C161.036 57.0998 161.416 56.9448 161.736 56.7748C162.066 56.6048 162.351 56.4498 162.591 56.3098C162.841 56.1698 163.081 56.0998 163.311 56.0998C163.621 56.0998 163.851 56.2148 164.001 56.4448L165.066 57.7948C164.656 58.2748 164.196 58.6798 163.686 59.0098C163.176 59.3298 162.641 59.5898 162.081 59.7898C161.531 59.9798 160.966 60.1148 160.386 60.1948C159.816 60.2748 159.261 60.3148 158.721 60.3148C157.651 60.3148 156.656 60.1398 155.736 59.7898C154.816 59.4298 154.016 58.9048 153.336 58.2148C152.656 57.5148 152.121 56.6548 151.731 55.6348C151.341 54.6048 151.146 53.4148 151.146 52.0648C151.146 51.0148 151.316 50.0298 151.656 49.1098C151.996 48.1798 152.481 47.3748 153.111 46.6948C153.751 46.0048 154.526 45.4598 155.436 45.0598C156.356 44.6598 157.391 44.4598 158.541 44.4598C159.511 44.4598 160.406 44.6148 161.226 44.9248C162.046 45.2348 162.751 45.6898 163.341 46.2898C163.931 46.8798 164.391 47.6098 164.721 48.4798C165.061 49.3398 165.231 50.3248 165.231 51.4348C165.231 51.9948 165.171 52.3748 165.051 52.5748C164.931 52.7648 164.701 52.8598 164.361 52.8598H154.836ZM182.942 49.3048C183.682 49.3048 184.327 49.2148 184.877 49.0348C185.427 48.8448 185.882 48.5798 186.242 48.2398C186.612 47.8898 186.887 47.4698 187.067 46.9798C187.247 46.4798 187.337 45.9248 187.337 45.3148C187.337 44.7348 187.247 44.2098 187.067 43.7398C186.887 43.2698 186.617 42.8698 186.257 42.5398C185.897 42.2098 185.442 41.9598 184.892 41.7898C184.342 41.6098 183.692 41.5198 182.942 41.5198H179.927V49.3048H182.942ZM182.942 38.3998C184.392 38.3998 185.647 38.5698 186.707 38.9098C187.767 39.2498 188.642 39.7248 189.332 40.3348C190.022 40.9448 190.532 41.6748 190.862 42.5248C191.202 43.3748 191.372 44.3048 191.372 45.3148C191.372 46.3648 191.197 47.3298 190.847 48.2098C190.497 49.0798 189.972 49.8298 189.272 50.4598C188.572 51.0898 187.692 51.5798 186.632 51.9298C185.582 52.2798 184.352 52.4548 182.942 52.4548H179.927V60.0898H175.892V38.3998H182.942ZM201.542 53.5198C200.472 53.5698 199.572 53.6648 198.842 53.8048C198.112 53.9348 197.527 54.1048 197.087 54.3148C196.647 54.5248 196.332 54.7698 196.142 55.0498C195.952 55.3298 195.857 55.6348 195.857 55.9648C195.857 56.6148 196.047 57.0798 196.427 57.3598C196.817 57.6398 197.322 57.7798 197.942 57.7798C198.702 57.7798 199.357 57.6448 199.907 57.3748C200.467 57.0948 201.012 56.6748 201.542 56.1148V53.5198ZM193.052 46.8448C194.822 45.2248 196.952 44.4148 199.442 44.4148C200.342 44.4148 201.147 44.5648 201.857 44.8648C202.567 45.1548 203.167 45.5648 203.657 46.0948C204.147 46.6148 204.517 47.2398 204.767 47.9698C205.027 48.6998 205.157 49.4998 205.157 50.3698V60.0898H203.477C203.127 60.0898 202.857 60.0398 202.667 59.9398C202.477 59.8298 202.327 59.6148 202.217 59.2948L201.887 58.1848C201.497 58.5348 201.117 58.8448 200.747 59.1148C200.377 59.3748 199.992 59.5948 199.592 59.7748C199.192 59.9548 198.762 60.0898 198.302 60.1798C197.852 60.2798 197.352 60.3298 196.802 60.3298C196.152 60.3298 195.552 60.2448 195.002 60.0748C194.452 59.8948 193.977 59.6298 193.577 59.2798C193.177 58.9298 192.867 58.4948 192.647 57.9748C192.427 57.4548 192.317 56.8498 192.317 56.1598C192.317 55.7698 192.382 55.3848 192.512 55.0048C192.642 54.6148 192.852 54.2448 193.142 53.8948C193.442 53.5448 193.827 53.2148 194.297 52.9048C194.767 52.5948 195.342 52.3248 196.022 52.0948C196.712 51.8648 197.512 51.6798 198.422 51.5398C199.332 51.3898 200.372 51.2998 201.542 51.2698V50.3698C201.542 49.3398 201.322 48.5798 200.882 48.0898C200.442 47.5898 199.807 47.3398 198.977 47.3398C198.377 47.3398 197.877 47.4098 197.477 47.5498C197.087 47.6898 196.742 47.8498 196.442 48.0298C196.142 48.1998 195.867 48.3548 195.617 48.4948C195.377 48.6348 195.107 48.7048 194.807 48.7048C194.547 48.7048 194.327 48.6398 194.147 48.5098C193.967 48.3698 193.822 48.2098 193.712 48.0298L193.052 46.8448ZM222.187 44.6998L213.802 64.3198C213.692 64.5798 213.547 64.7748 213.367 64.9048C213.197 65.0448 212.932 65.1148 212.572 65.1148H209.812L212.692 58.9348L206.467 44.6998H209.722C210.012 44.6998 210.237 44.7698 210.397 44.9098C210.567 45.0498 210.692 45.2098 210.772 45.3898L214.042 53.3698C214.152 53.6398 214.242 53.9098 214.312 54.1798C214.392 54.4498 214.467 54.7248 214.537 55.0048C214.627 54.7248 214.717 54.4498 214.807 54.1798C214.897 53.8998 214.997 53.6248 215.107 53.3548L218.197 45.3898C218.277 45.1898 218.407 45.0248 218.587 44.8948C218.777 44.7648 218.987 44.6998 219.217 44.6998H222.187ZM224.027 60.0898V44.6998H226.292C226.772 44.6998 227.087 44.9248 227.237 45.3748L227.477 46.5148C227.747 46.2148 228.027 45.9398 228.317 45.6898C228.617 45.4398 228.932 45.2248 229.262 45.0448C229.602 44.8648 229.962 44.7248 230.342 44.6248C230.732 44.5148 231.157 44.4598 231.617 44.4598C232.587 44.4598 233.382 44.7248 234.002 45.2548C234.632 45.7748 235.102 46.4698 235.412 47.3398C235.652 46.8298 235.952 46.3948 236.312 46.0348C236.672 45.6648 237.067 45.3648 237.497 45.1348C237.927 44.9048 238.382 44.7348 238.862 44.6248C239.352 44.5148 239.842 44.4598 240.332 44.4598C241.182 44.4598 241.937 44.5898 242.597 44.8498C243.257 45.1098 243.812 45.4898 244.262 45.9898C244.712 46.4898 245.052 47.0998 245.282 47.8198C245.522 48.5398 245.642 49.3648 245.642 50.2948V60.0898H241.937V50.2948C241.937 49.3148 241.722 48.5798 241.292 48.0898C240.862 47.5898 240.232 47.3398 239.402 47.3398C239.022 47.3398 238.667 47.4048 238.337 47.5348C238.017 47.6648 237.732 47.8548 237.482 48.1048C237.242 48.3448 237.052 48.6498 236.912 49.0198C236.772 49.3898 236.702 49.8148 236.702 50.2948V60.0898H232.982V50.2948C232.982 49.2648 232.772 48.5148 232.352 48.0448C231.942 47.5748 231.337 47.3398 230.537 47.3398C229.997 47.3398 229.492 47.4748 229.022 47.7448C228.562 48.0048 228.132 48.3648 227.732 48.8248V60.0898H224.027ZM259.079 50.6248C259.079 50.1448 259.009 49.6948 258.869 49.2748C258.739 48.8448 258.539 48.4698 258.269 48.1498C257.999 47.8298 257.654 47.5798 257.234 47.3998C256.824 47.2098 256.344 47.1148 255.794 47.1148C254.724 47.1148 253.879 47.4198 253.259 48.0298C252.649 48.6398 252.259 49.5048 252.089 50.6248H259.079ZM252.014 52.8598C252.074 53.6498 252.214 54.3348 252.434 54.9148C252.654 55.4848 252.944 55.9598 253.304 56.3398C253.664 56.7098 254.089 56.9898 254.579 57.1798C255.079 57.3598 255.629 57.4498 256.229 57.4498C256.829 57.4498 257.344 57.3798 257.774 57.2398C258.214 57.0998 258.594 56.9448 258.914 56.7748C259.244 56.6048 259.529 56.4498 259.769 56.3098C260.019 56.1698 260.259 56.0998 260.489 56.0998C260.799 56.0998 261.029 56.2148 261.179 56.4448L262.244 57.7948C261.834 58.2748 261.374 58.6798 260.864 59.0098C260.354 59.3298 259.819 59.5898 259.259 59.7898C258.709 59.9798 258.144 60.1148 257.564 60.1948C256.994 60.2748 256.439 60.3148 255.899 60.3148C254.829 60.3148 253.834 60.1398 252.914 59.7898C251.994 59.4298 251.194 58.9048 250.514 58.2148C249.834 57.5148 249.299 56.6548 248.909 55.6348C248.519 54.6048 248.324 53.4148 248.324 52.0648C248.324 51.0148 248.494 50.0298 248.834 49.1098C249.174 48.1798 249.659 47.3748 250.289 46.6948C250.929 46.0048 251.704 45.4598 252.614 45.0598C253.534 44.6598 254.569 44.4598 255.719 44.4598C256.689 44.4598 257.584 44.6148 258.404 44.9248C259.224 45.2348 259.929 45.6898 260.519 46.2898C261.109 46.8798 261.569 47.6098 261.899 48.4798C262.239 49.3398 262.409 50.3248 262.409 51.4348C262.409 51.9948 262.349 52.3748 262.229 52.5748C262.109 52.7648 261.879 52.8598 261.539 52.8598H252.014ZM268.654 46.5898C268.964 46.2798 269.289 45.9948 269.629 45.7348C269.979 45.4648 270.344 45.2398 270.724 45.0598C271.114 44.8698 271.529 44.7248 271.969 44.6248C272.409 44.5148 272.889 44.4598 273.409 44.4598C274.249 44.4598 274.994 44.6048 275.644 44.8948C276.294 45.1748 276.834 45.5748 277.264 46.0948C277.704 46.6048 278.034 47.2198 278.254 47.9398C278.484 48.6498 278.599 49.4348 278.599 50.2948V60.0898H274.894V50.2948C274.894 49.3548 274.679 48.6298 274.249 48.1198C273.819 47.5998 273.164 47.3398 272.284 47.3398C271.644 47.3398 271.044 47.4848 270.484 47.7748C269.924 48.0648 269.394 48.4598 268.894 48.9598V60.0898H265.189V44.6998H267.454C267.934 44.6998 268.249 44.9248 268.399 45.3748L268.654 46.5898ZM287.048 60.3298C285.708 60.3298 284.678 59.9548 283.958 59.2048C283.248 58.4448 282.893 57.3998 282.893 56.0698V47.4748H281.318C281.118 47.4748 280.948 47.4098 280.808 47.2798C280.668 47.1498 280.598 46.9548 280.598 46.6948V45.2248L283.073 44.8198L283.853 40.6198C283.903 40.4198 283.998 40.2648 284.138 40.1548C284.278 40.0448 284.458 39.9898 284.678 39.9898H286.598V44.8348H290.708V47.4748H286.598V55.8148C286.598 56.2948 286.713 56.6698 286.943 56.9398C287.183 57.2098 287.508 57.3448 287.918 57.3448C288.148 57.3448 288.338 57.3198 288.488 57.2698C288.648 57.2098 288.783 57.1498 288.893 57.0898C289.013 57.0298 289.118 56.9748 289.208 56.9248C289.298 56.8648 289.388 56.8348 289.478 56.8348C289.588 56.8348 289.678 56.8648 289.748 56.9248C289.818 56.9748 289.893 57.0548 289.973 57.1648L291.083 58.9648C290.543 59.4148 289.923 59.7548 289.223 59.9848C288.523 60.2148 287.798 60.3298 287.048 60.3298ZM302.47 47.6998C302.37 47.8598 302.265 47.9748 302.155 48.0448C302.045 48.1048 301.905 48.1348 301.735 48.1348C301.555 48.1348 301.36 48.0848 301.15 47.9848C300.95 47.8848 300.715 47.7748 300.445 47.6548C300.175 47.5248 299.865 47.4098 299.515 47.3098C299.175 47.2098 298.77 47.1598 298.3 47.1598C297.57 47.1598 296.995 47.3148 296.575 47.6248C296.165 47.9348 295.96 48.3398 295.96 48.8398C295.96 49.1698 296.065 49.4498 296.275 49.6798C296.495 49.8998 296.78 50.0948 297.13 50.2648C297.49 50.4348 297.895 50.5898 298.345 50.7298C298.795 50.8598 299.25 51.0048 299.71 51.1648C300.18 51.3248 300.64 51.5098 301.09 51.7198C301.54 51.9198 301.94 52.1798 302.29 52.4998C302.65 52.8098 302.935 53.1848 303.145 53.6248C303.365 54.0648 303.475 54.5948 303.475 55.2148C303.475 55.9548 303.34 56.6398 303.07 57.2698C302.81 57.8898 302.42 58.4298 301.9 58.8898C301.38 59.3398 300.735 59.6948 299.965 59.9548C299.205 60.2048 298.325 60.3298 297.325 60.3298C296.795 60.3298 296.275 60.2798 295.765 60.1798C295.265 60.0898 294.78 59.9598 294.31 59.7898C293.85 59.6198 293.42 59.4198 293.02 59.1898C292.63 58.9598 292.285 58.7098 291.985 58.4398L292.84 57.0298C292.95 56.8598 293.08 56.7298 293.23 56.6398C293.38 56.5498 293.57 56.5048 293.8 56.5048C294.03 56.5048 294.245 56.5698 294.445 56.6998C294.655 56.8298 294.895 56.9698 295.165 57.1198C295.435 57.2698 295.75 57.4098 296.11 57.5398C296.48 57.6698 296.945 57.7348 297.505 57.7348C297.945 57.7348 298.32 57.6848 298.63 57.5848C298.95 57.4748 299.21 57.3348 299.41 57.1648C299.62 56.9948 299.77 56.7998 299.86 56.5798C299.96 56.3498 300.01 56.1148 300.01 55.8748C300.01 55.5148 299.9 55.2198 299.68 54.9898C299.47 54.7598 299.185 54.5598 298.825 54.3898C298.475 54.2198 298.07 54.0698 297.61 53.9398C297.16 53.7998 296.695 53.6498 296.215 53.4898C295.745 53.3298 295.28 53.1448 294.82 52.9348C294.37 52.7148 293.965 52.4398 293.605 52.1098C293.255 51.7798 292.97 51.3748 292.75 50.8948C292.54 50.4148 292.435 49.8348 292.435 49.1548C292.435 48.5248 292.56 47.9248 292.81 47.3548C293.06 46.7848 293.425 46.2898 293.905 45.8698C294.395 45.4398 295 45.0998 295.72 44.8498C296.45 44.5898 297.29 44.4598 298.24 44.4598C299.3 44.4598 300.265 44.6348 301.135 44.9848C302.005 45.3348 302.73 45.7948 303.31 46.3648L302.47 47.6998Z" fill="#141F29"/>
</svg>
