<svg width="30" height="30" viewBox="0 0 30 30" fill="none" xmlns="http://www.w3.org/2000/svg">
<g clip-path="url(#clip0_474_450)">
<mask id="mask0_474_450" style="mask-type:luminance" maskUnits="userSpaceOnUse" x="0" y="0" width="30" height="30">
<path d="M30 0H0V30H30V0Z" fill="white"/>
</mask>
<g mask="url(#mask0_474_450)">
<path d="M30 30H0V0H30V30Z" fill="#141F29"/>
<path d="M15 8.5825V10.4015C15 10.7361 15.2059 11.0278 15.5147 11.1393L18.9977 12.3835C19.684 12.6237 19.684 13.6104 18.9977 13.8593L15.5147 15.1034C15.2059 15.2149 15 15.5066 15 15.8412V17.6345C15 18.1922 15.5576 18.5697 16.0638 18.3638L24.4882 14.8631C24.7712 14.743 24.96 14.4513 24.96 14.1338V12.0746C24.96 11.7571 24.7712 11.474 24.4882 11.3538L16.0638 7.86178C15.5576 7.64728 15 8.0248 15 8.5825Z" fill="#CCDB28"/>
<path d="M15 21.4707V19.6678C15 19.333 14.7951 19.0325 14.4879 18.9209L11.04 17.6847C10.3572 17.4357 10.3572 16.4398 11.04 16.1994L14.4879 14.9546C14.7951 14.8516 15 14.5511 15 14.2163V12.4306C15 11.8725 14.4538 11.4862 13.9417 11.7008L5.57791 15.195C5.28773 15.3237 5.09998 15.6071 5.09998 15.9247V17.9852C5.09998 18.3028 5.28773 18.5947 5.57791 18.7149L13.9417 22.2005C14.4538 22.4151 15 22.0287 15 21.4707Z" fill="#CCDB28"/>
</g>
</g>
<defs>
<clipPath id="clip0_474_450">
<rect width="30" height="30" fill="white"/>
</clipPath>
</defs>
</svg>
