<svg width="144" height="105" viewBox="0 0 144 105" fill="none" xmlns="http://www.w3.org/2000/svg">
<g clip-path="url(#clip0_1391_172)">
<path d="M70.9688 5.52972V18.4579C70.9688 20.8816 72.3157 22.9012 74.605 23.7095L99.3833 32.5974C104.231 34.347 104.231 41.3496 99.3833 43.1004L74.605 51.9882C72.3157 52.7967 70.9688 54.8163 70.9688 57.24V70.0326C70.9688 73.9386 74.8748 76.6308 78.5099 75.1497L138.435 50.2374C140.455 49.4301 141.801 47.2752 141.801 45.12V30.4422C141.801 28.1528 140.455 26.1332 138.435 25.1906L78.5099 0.412444C74.8748 -1.06867 70.9688 1.62488 70.9688 5.52972Z" fill="url(#paint0_linear_1391_172)"/>
<path d="M70.9668 97.5072V84.5805C70.9668 82.2909 69.4857 80.136 67.1964 79.3275L42.5526 70.5753C37.5708 68.8245 37.5708 61.6875 42.5526 59.9367L67.1964 51.183C69.4857 50.376 70.9668 48.2208 70.9668 45.7971V33.1389C70.9668 29.0996 66.9267 26.4061 63.2916 27.8872L3.36636 52.7997C1.34677 53.7423 0 55.7619 0 58.0512V72.5949C0 74.8842 1.34677 77.0394 3.36636 77.8464L63.2916 102.625C66.9267 104.24 70.9668 101.548 70.9668 97.5072Z" fill="#141F29"/>
</g>
<defs>
<linearGradient id="paint0_linear_1391_172" x1="70.9687" y1="37.7811" x2="141.801" y2="37.7811" gradientUnits="userSpaceOnUse">
<stop offset="0.277986" stop-color="#141F29"/>
<stop offset="1" stop-color="#CCDB28"/>
</linearGradient>
<clipPath id="clip0_1391_172">
<rect width="144" height="105" fill="white"/>
</clipPath>
</defs>
</svg>
