<svg width="18" height="20" viewBox="0 0 18 20" fill="none" xmlns="http://www.w3.org/2000/svg">
<path d="M9 20C13.9705 20 18 15.5228 18 10C18 4.47715 13.9705 0 9 0C4.02943 0 0 4.47715 0 10C0 15.5228 4.02943 20 9 20ZM10.3503 6C10.645 6.43606 10.8562 6.94584 10.9575 7.5H12.6V9H10.9575C10.6447 10.7117 9.28278 12 7.65 12H7.47963L10.8273 15.7197L9.87273 16.7803L5.4 11.8107V10.5H7.65C8.53173 10.5 9.28179 9.8739 9.5598 9H5.4V7.5H9.5598C9.28179 6.62611 8.53173 6 7.65 6H5.4V4.5H12.6V6H10.3503Z" fill="#CCDB28"/>
</svg>
