<svg width="12" height="12" viewBox="0 0 12 12" fill="none" xmlns="http://www.w3.org/2000/svg">
<path d="M6.80293 9.07275L3.66423 7.3607C3.27566 7.74642 2.74053 7.98474 2.14974 7.98474C0.962468 7.98474 0 7.02227 0 5.835C0 4.64773 0.962468 3.68526 2.14974 3.68526C2.74049 3.68526 3.27559 3.92355 3.66416 4.30926L6.80293 2.59722C6.77241 2.45287 6.75631 2.30318 6.75631 2.14974C6.75631 0.962468 7.71878 0 8.90605 0C10.0933 0 11.0558 0.962468 11.0558 2.14974C11.0558 3.33701 10.0933 4.29947 8.90605 4.29947C8.31524 4.29947 7.78014 4.06117 7.39159 3.67543L4.25282 5.38742C4.28339 5.53183 4.29947 5.68151 4.29947 5.835C4.29947 5.98843 4.2834 6.13811 4.25284 6.28245L7.39159 7.99456C7.7802 7.60884 8.3153 7.37053 8.90605 7.37053C10.0933 7.37053 11.0558 8.33299 11.0558 9.52026C11.0558 10.7075 10.0933 11.67 8.90605 11.67C7.71878 11.67 6.75631 10.7075 6.75631 9.52026C6.75631 9.36683 6.77241 9.21709 6.80293 9.07275Z" fill="#CCDB28"/>
</svg>
