<svg width="30" height="39" viewBox="0 0 30 39" fill="none" xmlns="http://www.w3.org/2000/svg">
<path d="M1.47131 28.0573L11.1346 29.9899L12.5842 27.091M22.7307 35.788V28.0573L14.9999 22.2594L16.9326 10.6633M16.9326 10.6633L7.26931 12.596V18.394M16.9326 10.6633L22.7307 16.4613L28.5286 18.394M1.47131 29.3593L11.1346 31.2919L12.5842 28.393M22.7307 37.09V29.3593L14.9999 23.5614L16.9326 11.9653M16.9326 11.9653L7.26931 13.898V19.696M16.9326 11.9653L22.7307 17.7633L28.5286 19.696M16.9326 2.93268C16.9326 3.44526 17.1362 3.93684 17.4987 4.29928C17.8612 4.66173 18.3527 4.86534 18.8653 4.86534C19.3779 4.86534 19.8694 4.66173 20.2319 4.29928C20.5944 3.93684 20.798 3.44526 20.798 2.93268C20.798 2.42011 20.5944 1.92853 20.2319 1.56609C19.8694 1.20363 19.3779 1.00001 18.8653 1C18.3527 1.00001 17.8612 1.20363 17.4987 1.56609C17.1362 1.92853 16.9326 2.42011 16.9326 2.93268ZM16.9326 4.23469C16.9326 4.74726 17.1362 5.23885 17.4987 5.60129C17.8612 5.96374 18.3527 6.16735 18.8653 6.16735C19.3779 6.16735 19.8694 5.96374 20.2319 5.60129C20.5944 5.23885 20.798 4.74726 20.798 4.23469C20.798 3.72212 20.5944 3.23053 20.2319 2.86809C19.8694 2.50564 19.3779 2.30202 18.8653 2.30201C18.3527 2.30202 17.8612 2.50564 17.4987 2.86809C17.1362 3.23053 16.9326 3.72212 16.9326 4.23469Z" stroke="#141F29" stroke-width="2" stroke-linecap="round" stroke-linejoin="round"/>
</svg>
